<?xml version="1.0" encoding="iso-8859-1"?>
<!-- Uploaded to: SVG Repo, www.svgrepo.com, Generator: SVG Repo Mixer Tools -->
<svg height="800px" width="800px" version="1.1" id="Layer_1" xmlns="http://www.w3.org/2000/svg" xmlns:xlink="http://www.w3.org/1999/xlink" 
	 viewBox="0 0 512.004 512.004" xml:space="preserve">
<polygon style="fill:#BDC4D0;" points="38.966,367.217 66.537,243.202 371.203,243.202 222.202,392.203 "/>
<polygon style="fill:#A0BF7C;" points="192.003,499.202 289.812,401.393 486.59,428.247 502.36,499.202 "/>
<path style="fill:#FF877F;" d="M153.603,140.802c-35.294,0-64-28.706-64-64s28.706-64,64-64s64,28.706,64,64
	S188.896,140.802,153.603,140.802z"/>
<polygon style="fill:#6D7584;" points="115.203,499.202 371.203,243.202 448.003,243.202 192.003,499.202 "/>
<polygon style="fill:#A0BF7C;" points="9.645,499.202 38.974,367.191 222.219,392.194 115.203,499.202 "/>
<polygon style="fill:#8CC0C5;" points="289.786,401.419 445.929,245.267 486.599,428.256 "/>
<path style="fill:#573A32;" d="M511.397,480.847l-51.2-230.4c-2.603-11.708-12.996-20.045-24.994-20.045h-268.8v-78.089
	c36.292-6.127,64-37.478,64-75.511c0-42.419-34.381-76.8-76.8-76.8s-76.8,34.381-76.8,76.8c0,38.033,27.708,69.385,64,75.511v78.089
	h-64c-11.998,0-22.391,8.337-24.994,20.045l-51.2,230.4c-1.681,7.578,0.162,15.514,5.026,21.572
	c4.864,6.059,12.203,9.583,19.968,9.583h460.8c7.765,0,15.113-3.524,19.968-9.583C511.226,496.36,513.078,488.433,511.397,480.847z
	 M438.496,270.816l31.616,142.276L317.084,392.22L438.496,270.816z M102.403,76.802c0-28.228,22.972-51.2,51.2-51.2
	s51.2,22.972,51.2,51.2s-22.972,51.2-51.2,51.2S102.403,105.03,102.403,76.802z M76.803,256.002h64v76.8h25.6v-76.8h173.901
	L217.645,378.66L54.488,356.414L76.803,256.002z M25.603,486.402l23.322-104.934l145.997,19.908l-85.018,85.026H25.603z
	 M146.102,486.402l230.4-230.4h40.602l-230.4,230.4H146.102z M222.902,486.402l71.467-71.467l181.666,24.772l10.368,46.694H222.902z
	"/>
</svg>