<?xml version="1.0" encoding="iso-8859-1"?>
<!-- Uploaded to: SVG Repo, www.svgrepo.com, Generator: SVG Repo Mixer Tools -->
<svg height="800px" width="800px" version="1.1" id="Layer_1" xmlns="http://www.w3.org/2000/svg" xmlns:xlink="http://www.w3.org/1999/xlink" 
	 viewBox="0 0 512.001 512.001" xml:space="preserve">
<path style="fill:#CEA05D;" d="M29.643,497.602l-15.244-15.244c-8.418-8.418-8.418-22.069,0-30.487l327.014-327.115l45.731,45.731
	L60.13,497.602C51.711,506.021,38.061,506.021,29.643,497.602z"/>
<path style="fill:#99774F;" d="M392.534,164.738L60.13,497.602c-8.418,8.418-22.069,8.418-30.487,0l-15.244-15.244
	c-1.757-1.757-3.124-3.748-4.148-5.865c8.029,3.883,17.96,2.515,24.622-4.148l332.403-332.864L392.534,164.738z"/>
<path style="fill:#5B7A7F;" d="M503.916,379.958L503.916,379.958c0,14.883-12.065,26.947-26.947,26.947h-5.389l-14.396,86.378
	c-1.023,6.135-6.332,10.632-12.551,10.632s-11.528-4.497-12.551-10.632l-14.396-86.378h-5.389
	c-14.882,0-26.947-12.065-26.947-26.947l0,0c0-14.883,12.065-26.947,26.947-26.947h64.674
	C491.851,353.011,503.916,365.076,503.916,379.958z M459.493,242.558l38.109-38.109c8.419-8.419,8.419-22.069,0-30.487
	L384.784,61.143c-1.004-1.005-2.104-1.907-3.285-2.694l-67.265-44.844c-13.037-8.691-30.397-6.973-41.476,4.107l0,0
	c-11.08,11.08-12.799,28.439-4.107,41.476l44.843,67.265c0.788,1.181,1.69,2.282,2.694,3.285l112.819,112.819
	C437.424,250.976,451.074,250.976,459.493,242.558z"/>
<path style="fill:#769CA5;" d="M460.398,211.164L347.581,98.345c-1.004-1.005-1.906-2.105-2.694-3.285l-44.844-67.265
	c-3.988-5.982-5.758-12.874-5.464-19.653c6.779-0.294,13.671,1.476,19.653,5.464l67.265,44.844c1.181,0.787,2.282,1.689,3.285,2.694
	l112.819,112.819c8.419,8.419,8.419,22.069,0,30.487l-6.715,6.715C482.467,219.582,468.818,219.582,460.398,211.164z
	 M476.969,353.011h-64.674c-14.882,0-26.947,12.065-26.947,26.947l0,0c0,14.883,12.065,26.947,26.947,26.947h64.674
	c14.882,0,26.947-12.065,26.947-26.947l0,0C503.916,365.076,491.851,353.011,476.969,353.011z"/>
<path style="fill:#90B5BF;" d="M503.916,379.958L503.916,379.958c0,1.846-0.186,3.648-0.54,5.389H385.888
	c-0.354-1.742-0.54-3.544-0.54-5.389l0,0c0-14.883,12.065-26.947,26.947-26.947h64.674
	C491.851,353.011,503.916,365.076,503.916,379.958z"/>
<path d="M75.192,87.698c-3.157-3.157-3.157-8.276,0-11.434c3.158-3.156,8.277-3.156,11.433,0l34.959,34.958
	c3.157,3.158,3.157,8.276,0,11.434c-1.579,1.578-3.649,2.367-5.717,2.367c-2.068,0-4.138-0.789-5.716-2.367L75.192,87.698z
	 M197.146,209.654c1.579,1.578,3.648,2.367,5.717,2.367c2.068,0,4.138-0.789,5.717-2.367c3.157-3.158,3.157-8.276,0-11.434
	l-66.527-66.529c-3.158-3.156-8.276-3.156-11.434,0c-3.157,3.158-3.157,8.276,0,11.434L197.146,209.654z M451.338,210.171
	c2.068,0,4.138-0.789,5.717-2.367c3.157-3.158,3.157-8.276,0-11.434L353.293,92.605c-3.158-3.156-8.276-3.156-11.434,0
	c-3.157,3.158-3.157,8.276,0,11.434l103.761,103.765C447.2,209.381,449.269,210.171,451.338,210.171z M306.761,130.916
	c1.08,1.62,2.325,3.14,3.704,4.519l4.478,4.478L75.203,379.623c-3.158,3.157-3.158,8.276-0.001,11.433
	c1.579,1.579,3.648,2.368,5.717,2.368c2.068,0,4.138-0.789,5.716-2.367l239.74-239.713l2.561,2.562
	c3.157,3.155,8.275,3.157,11.434,0c3.157-3.158,3.157-8.276,0-11.434l-18.472-18.473c-0.627-0.626-1.193-1.317-1.685-2.052
	l-44.845-67.269c-6.532-9.797-5.229-22.951,3.098-31.277c8.325-8.326,21.477-9.628,31.275-3.097l67.267,44.846
	c0.736,0.49,1.426,1.057,2.052,1.685l112.822,112.825c5.254,5.253,5.254,13.801,0,19.055l-38.109,38.112
	c-5.254,5.251-13.801,5.254-19.055,0l-72.792-72.795c-3.158-3.156-8.276-3.156-11.434,0c-3.157,3.158-3.157,8.276,0,11.434
	l72.793,72.795c11.556,11.556,30.363,11.556,41.921,0l38.11-38.113c11.557-11.558,11.556-30.365,0-41.923L390.497,55.399
	c-1.378-1.378-2.898-2.624-4.517-3.704L318.712,6.849c-16.189-10.793-37.924-8.64-51.677,5.117
	c-13.758,13.756-15.911,35.492-5.118,51.68L306.761,130.916z M288.331,495.831h-32.338c-4.466,0-8.084,3.62-8.084,8.084
	c0,4.465,3.62,8.084,8.084,8.084h32.338c4.466,0,8.084-3.62,8.084-8.084C296.415,499.45,292.797,495.831,288.331,495.831z
	 M166.658,240.143c1.579,1.578,3.649,2.367,5.717,2.367c2.068,0,4.138-0.789,5.717-2.367c3.157-3.158,3.157-8.276,0-11.434
	l-91.466-91.468c-3.159-3.157-8.277-3.156-11.434,0c-3.157,3.158-3.157,8.276,0,11.434L166.658,240.143z M512,379.951
	c0,18.828-14.928,34.234-33.568,35.004l-13.276,79.659c-1.679,10.075-10.311,17.389-20.526,17.389H320.669
	c-4.466,0-8.084-3.62-8.084-8.084c0-4.465,3.62-8.084,8.084-8.084h103.675c-0.091-0.402-0.171-0.808-0.24-1.22l-13.276-79.658
	c-18.64-0.77-33.568-16.176-33.568-35.004c0-19.318,15.716-35.034,35.033-35.034h64.676C496.286,344.917,512,360.633,512,379.951z
	 M495.832,379.951c0-10.402-8.463-18.864-18.863-18.864h-64.676c-10.402,0-18.863,8.463-18.863,18.864s8.463,18.864,18.863,18.864
	h32.338c4.466,0,8.084,3.62,8.084,8.084c0,4.466-3.62,8.084-8.084,8.084h-17.405l12.828,76.969c0.375,2.247,2.299,3.878,4.577,3.878
	c2.278,0,4.203-1.631,4.576-3.877l14.398-86.384c0.65-3.898,4.023-6.755,7.974-6.755h5.389
	C487.37,398.815,495.832,390.352,495.832,379.951z M355.112,202.64c-3.157-3.157-8.276-3.158-11.433-0.001L54.402,491.885
	c-5.254,5.254-13.801,5.254-19.055,0l-15.245-15.244c-5.253-5.254-5.253-13.802-0.001-19.056l44.973-44.968
	c3.158-3.157,3.158-8.276,0.001-11.433c-3.157-3.157-8.276-3.158-11.433-0.001L8.668,446.152c-11.556,11.557-11.556,30.364,0,41.923
	l15.246,15.245c5.779,5.779,13.369,8.666,20.96,8.666s15.182-2.889,20.961-8.666l289.278-289.245
	C358.269,210.916,358.269,205.797,355.112,202.64z"/>
</svg>